#tb 0: 1/60
0,          0,          0,        1,   126336, 0xb50e8bb0
0,          1,          1,        1,   126336, 0xdc260cfa
0,          2,          2,        1,   126336, 0x2762f0d9
0,          3,          3,        1,   126336, 0xec87d823
0,          4,          4,        1,   126336, 0x1b28b47b
0,          5,          5,        1,   126336, 0x65508be0
0,          6,          6,        1,   126336, 0x175565f0
0,          7,          7,        1,   126336, 0x483f5138
0,          8,          8,        1,   126336, 0xaacd2a7c
0,          9,          9,        1,   126336, 0x170c09f5
0,         10,         10,        1,   126336, 0x27c0e945
0,         11,         11,        1,   126336, 0x5555d3fd
0,         12,         12,        1,   126336, 0x7749ad6a
0,         13,         13,        1,   126336, 0xee3096de
0,         14,         14,        1,   126336, 0xe2b27655
0,         15,         15,        1,   126336, 0x580556e5
0,         16,         16,        1,   126336, 0x6f912baa
0,         17,         17,        1,   126336, 0xb57e0b94
0,         18,         18,        1,   126336, 0x2032e017
0,         19,         19,        1,   126336, 0xe08da60f
0,         20,         20,        1,   126336, 0xb8419e26
0,         21,         21,        1,   126336, 0xaf58b9d1
0,         22,         22,        1,   126336, 0x3d88e5ba
0,         23,         23,        1,   126336, 0x83d30a85
0,         24,         24,        1,   126336, 0x8f2c27af
0,         25,         25,        1,   126336, 0x296c3a7e
0,         26,         26,        1,   126336, 0xf6d458ac
0,         27,         27,        1,   126336, 0x2e2172aa
0,         28,         28,        1,   126336, 0x611c8b2f
0,         29,         29,        1,   126336, 0x64b2c607
